<mxfile host="app.diagrams.net" agent="Mozilla/5.0 (Windows NT 10.0; Win64; x64) AppleWebKit/537.36 (KHTML, like Gecko) Chrome/131.0.0.0 Safari/537.36 Edg/131.0.0.0" version="26.0.4">
  <diagram name="Page-1" id="1mpggR0L6P8oNlM0kOON">
    <mxGraphModel dx="2213" dy="1296" grid="1" gridSize="10" guides="1" tooltips="1" connect="1" arrows="1" fold="1" page="1" pageScale="1" pageWidth="827" pageHeight="1169" math="0" shadow="0">
      <root>
        <mxCell id="0" />
        <mxCell id="1" parent="0" />
        <mxCell id="PFju4BP5pIrMXIDn9N4t-61" value="" style="rounded=0;whiteSpace=wrap;html=1;fillColor=#dae8fc;strokeColor=#6c8ebf;" vertex="1" parent="1">
          <mxGeometry x="164" y="30" width="636" height="1110" as="geometry" />
        </mxCell>
        <mxCell id="PFju4BP5pIrMXIDn9N4t-8" style="rounded=0;orthogonalLoop=1;jettySize=auto;html=1;exitX=0.5;exitY=0.5;exitDx=0;exitDy=0;exitPerimeter=0;entryX=0;entryY=0.5;entryDx=0;entryDy=0;endArrow=none;endFill=0;" edge="1" parent="1" source="PFju4BP5pIrMXIDn9N4t-1" target="PFju4BP5pIrMXIDn9N4t-4">
          <mxGeometry relative="1" as="geometry" />
        </mxCell>
        <mxCell id="PFju4BP5pIrMXIDn9N4t-9" style="rounded=0;orthogonalLoop=1;jettySize=auto;html=1;exitX=0.5;exitY=0.5;exitDx=0;exitDy=0;exitPerimeter=0;entryX=0;entryY=0.5;entryDx=0;entryDy=0;endArrow=none;endFill=0;" edge="1" parent="1" source="PFju4BP5pIrMXIDn9N4t-1" target="PFju4BP5pIrMXIDn9N4t-6">
          <mxGeometry relative="1" as="geometry" />
        </mxCell>
        <mxCell id="PFju4BP5pIrMXIDn9N4t-10" style="rounded=0;orthogonalLoop=1;jettySize=auto;html=1;exitX=0.5;exitY=0.5;exitDx=0;exitDy=0;exitPerimeter=0;entryX=0;entryY=0.5;entryDx=0;entryDy=0;endArrow=none;endFill=0;" edge="1" parent="1" source="PFju4BP5pIrMXIDn9N4t-1" target="PFju4BP5pIrMXIDn9N4t-7">
          <mxGeometry relative="1" as="geometry" />
        </mxCell>
        <mxCell id="PFju4BP5pIrMXIDn9N4t-1" value="Visiteur" style="shape=umlActor;verticalLabelPosition=bottom;verticalAlign=top;html=1;outlineConnect=0;" vertex="1" parent="1">
          <mxGeometry x="40" y="160" width="30" height="60" as="geometry" />
        </mxCell>
        <mxCell id="PFju4BP5pIrMXIDn9N4t-26" style="rounded=0;orthogonalLoop=1;jettySize=auto;html=1;exitX=0.5;exitY=0.5;exitDx=0;exitDy=0;exitPerimeter=0;entryX=0;entryY=0.5;entryDx=0;entryDy=0;endArrow=none;endFill=0;" edge="1" parent="1" source="PFju4BP5pIrMXIDn9N4t-2" target="PFju4BP5pIrMXIDn9N4t-22">
          <mxGeometry relative="1" as="geometry" />
        </mxCell>
        <mxCell id="PFju4BP5pIrMXIDn9N4t-27" style="rounded=0;orthogonalLoop=1;jettySize=auto;html=1;exitX=0.5;exitY=0.5;exitDx=0;exitDy=0;exitPerimeter=0;entryX=0;entryY=0.5;entryDx=0;entryDy=0;endArrow=none;endFill=0;" edge="1" parent="1" source="PFju4BP5pIrMXIDn9N4t-2" target="PFju4BP5pIrMXIDn9N4t-23">
          <mxGeometry relative="1" as="geometry" />
        </mxCell>
        <mxCell id="PFju4BP5pIrMXIDn9N4t-28" style="rounded=0;orthogonalLoop=1;jettySize=auto;html=1;exitX=0.5;exitY=0.5;exitDx=0;exitDy=0;exitPerimeter=0;entryX=0;entryY=0.5;entryDx=0;entryDy=0;endArrow=none;endFill=0;" edge="1" parent="1" source="PFju4BP5pIrMXIDn9N4t-2" target="PFju4BP5pIrMXIDn9N4t-25">
          <mxGeometry relative="1" as="geometry" />
        </mxCell>
        <mxCell id="PFju4BP5pIrMXIDn9N4t-53" style="edgeStyle=orthogonalEdgeStyle;rounded=0;orthogonalLoop=1;jettySize=auto;html=1;" edge="1" parent="1" source="PFju4BP5pIrMXIDn9N4t-2">
          <mxGeometry relative="1" as="geometry">
            <mxPoint x="60" y="210" as="targetPoint" />
          </mxGeometry>
        </mxCell>
        <mxCell id="PFju4BP5pIrMXIDn9N4t-2" value="Etudiant" style="shape=umlActor;verticalLabelPosition=bottom;verticalAlign=top;html=1;outlineConnect=0;" vertex="1" parent="1">
          <mxGeometry x="96" y="480" width="30" height="60" as="geometry" />
        </mxCell>
        <mxCell id="PFju4BP5pIrMXIDn9N4t-38" style="rounded=0;orthogonalLoop=1;jettySize=auto;html=1;exitX=0.5;exitY=0.5;exitDx=0;exitDy=0;exitPerimeter=0;entryX=0;entryY=0.5;entryDx=0;entryDy=0;endArrow=none;endFill=0;" edge="1" parent="1" source="PFju4BP5pIrMXIDn9N4t-3" target="PFju4BP5pIrMXIDn9N4t-31">
          <mxGeometry relative="1" as="geometry" />
        </mxCell>
        <mxCell id="PFju4BP5pIrMXIDn9N4t-51" style="rounded=0;orthogonalLoop=1;jettySize=auto;html=1;exitX=0.5;exitY=0.5;exitDx=0;exitDy=0;exitPerimeter=0;entryX=0;entryY=0.5;entryDx=0;entryDy=0;endArrow=none;endFill=0;" edge="1" parent="1" source="PFju4BP5pIrMXIDn9N4t-3" target="PFju4BP5pIrMXIDn9N4t-40">
          <mxGeometry relative="1" as="geometry" />
        </mxCell>
        <mxCell id="PFju4BP5pIrMXIDn9N4t-52" style="edgeStyle=orthogonalEdgeStyle;rounded=0;orthogonalLoop=1;jettySize=auto;html=1;exitX=0.5;exitY=0;exitDx=0;exitDy=0;exitPerimeter=0;" edge="1" parent="1" source="PFju4BP5pIrMXIDn9N4t-3" target="PFju4BP5pIrMXIDn9N4t-1">
          <mxGeometry relative="1" as="geometry" />
        </mxCell>
        <mxCell id="PFju4BP5pIrMXIDn9N4t-3" value="Enseignant" style="shape=umlActor;verticalLabelPosition=bottom;verticalAlign=top;html=1;outlineConnect=0;" vertex="1" parent="1">
          <mxGeometry x="40" y="800" width="30" height="60" as="geometry" />
        </mxCell>
        <mxCell id="PFju4BP5pIrMXIDn9N4t-4" value="Accès au catalogue des cours" style="ellipse;whiteSpace=wrap;html=1;" vertex="1" parent="1">
          <mxGeometry x="272" y="80" width="140" height="70" as="geometry" />
        </mxCell>
        <mxCell id="PFju4BP5pIrMXIDn9N4t-6" value="Rechercher des cours" style="ellipse;whiteSpace=wrap;html=1;" vertex="1" parent="1">
          <mxGeometry x="272" y="170" width="140" height="70" as="geometry" />
        </mxCell>
        <mxCell id="PFju4BP5pIrMXIDn9N4t-7" value="Création d&#39;un compte" style="ellipse;whiteSpace=wrap;html=1;" vertex="1" parent="1">
          <mxGeometry x="272" y="260" width="140" height="70" as="geometry" />
        </mxCell>
        <mxCell id="PFju4BP5pIrMXIDn9N4t-17" style="rounded=0;orthogonalLoop=1;jettySize=auto;html=1;exitX=0;exitY=0.5;exitDx=0;exitDy=0;entryX=1;entryY=0.5;entryDx=0;entryDy=0;dashed=1;" edge="1" parent="1" source="PFju4BP5pIrMXIDn9N4t-11" target="PFju4BP5pIrMXIDn9N4t-7">
          <mxGeometry relative="1" as="geometry" />
        </mxCell>
        <mxCell id="PFju4BP5pIrMXIDn9N4t-19" value="Extend" style="edgeLabel;html=1;align=center;verticalAlign=middle;resizable=0;points=[];" vertex="1" connectable="0" parent="PFju4BP5pIrMXIDn9N4t-17">
          <mxGeometry x="0.003" relative="1" as="geometry">
            <mxPoint as="offset" />
          </mxGeometry>
        </mxCell>
        <mxCell id="PFju4BP5pIrMXIDn9N4t-11" value="Inscrire comme un Etudiant" style="ellipse;whiteSpace=wrap;html=1;" vertex="1" parent="1">
          <mxGeometry x="552" y="190" width="140" height="70" as="geometry" />
        </mxCell>
        <mxCell id="PFju4BP5pIrMXIDn9N4t-18" style="rounded=0;orthogonalLoop=1;jettySize=auto;html=1;exitX=0;exitY=0.5;exitDx=0;exitDy=0;entryX=1;entryY=0.5;entryDx=0;entryDy=0;dashed=1;" edge="1" parent="1" source="PFju4BP5pIrMXIDn9N4t-12" target="PFju4BP5pIrMXIDn9N4t-7">
          <mxGeometry relative="1" as="geometry" />
        </mxCell>
        <mxCell id="PFju4BP5pIrMXIDn9N4t-20" value="Extend" style="edgeLabel;html=1;align=center;verticalAlign=middle;resizable=0;points=[];" vertex="1" connectable="0" parent="PFju4BP5pIrMXIDn9N4t-18">
          <mxGeometry x="0.0209" relative="1" as="geometry">
            <mxPoint as="offset" />
          </mxGeometry>
        </mxCell>
        <mxCell id="PFju4BP5pIrMXIDn9N4t-12" value="Inscrire comme un Enseignant" style="ellipse;whiteSpace=wrap;html=1;" vertex="1" parent="1">
          <mxGeometry x="552" y="330" width="140" height="70" as="geometry" />
        </mxCell>
        <mxCell id="PFju4BP5pIrMXIDn9N4t-22" value="&lt;span style=&quot;background-color: rgb(255, 255, 255); color: var(--text-color,#000000); font-family: &amp;quot;Nunito Sans&amp;quot;, sans-serif; font-size: 14px; text-align: start;&quot;&gt;Visualisation du catalogue des cours&lt;/span&gt;&lt;span style=&quot;color: rgba(0, 0, 0, 0); font-family: monospace; font-size: 0px; text-align: start; text-wrap-mode: nowrap;&quot;&gt;3CmxGraphModel%3E%3Croot%3E%3CmxCell%20id%3D%220%22%2F%3E%3CmxCell%20id%3D%221%22%20parent%3D%220%22%2F%3E%3CmxCell%20id%3D%222%22%20value%3D%22Acc%C3%A8s%20au%20catalogue%20des%20cours%22%20style%3D%22ellipse%3BwhiteSpace%3Dwrap%3Bhtml%3D1%3B%22%20vertex%3D%221%22%20parent%3D%221%22%3E%3CmxGeometry%20x%3D%22240%22%20y%3D%2280%22%20width%3D%22140%22%20height%3D%2270%22%20as%3D%22geometry%22%2F%3E%3C%2FmxCell%3E%3C%2Froot%3E%3C%2FmxGraphModel%3E&lt;/span&gt;" style="ellipse;whiteSpace=wrap;html=1;" vertex="1" parent="1">
          <mxGeometry x="296" y="420" width="140" height="70" as="geometry" />
        </mxCell>
        <mxCell id="PFju4BP5pIrMXIDn9N4t-23" value="&lt;div style=&quot;&quot;&gt;&lt;font color=&quot;#3f3f3f&quot; face=&quot;Nunito Sans, sans-serif&quot;&gt;&lt;span style=&quot;font-size: 14px; background-color: rgb(255, 255, 255);&quot;&gt;Consilter les details des cours&lt;/span&gt;&lt;/font&gt;&lt;/div&gt;" style="ellipse;whiteSpace=wrap;html=1;align=center;" vertex="1" parent="1">
          <mxGeometry x="296" y="515" width="140" height="70" as="geometry" />
        </mxCell>
        <mxCell id="PFju4BP5pIrMXIDn9N4t-29" style="edgeStyle=orthogonalEdgeStyle;rounded=0;orthogonalLoop=1;jettySize=auto;html=1;exitX=0;exitY=0.5;exitDx=0;exitDy=0;entryX=1;entryY=0.5;entryDx=0;entryDy=0;dashed=1;" edge="1" parent="1" source="PFju4BP5pIrMXIDn9N4t-24" target="PFju4BP5pIrMXIDn9N4t-25">
          <mxGeometry relative="1" as="geometry" />
        </mxCell>
        <mxCell id="PFju4BP5pIrMXIDn9N4t-30" value="Include" style="edgeLabel;html=1;align=center;verticalAlign=middle;resizable=0;points=[];" vertex="1" connectable="0" parent="PFju4BP5pIrMXIDn9N4t-29">
          <mxGeometry x="0.0306" relative="1" as="geometry">
            <mxPoint as="offset" />
          </mxGeometry>
        </mxCell>
        <mxCell id="PFju4BP5pIrMXIDn9N4t-24" value="&lt;div style=&quot;&quot;&gt;&lt;span style=&quot;font-family: &amp;quot;Nunito Sans&amp;quot;, sans-serif; font-size: 14px; text-align: left; background-color: rgb(255, 255, 255);&quot;&gt;Authentification&lt;/span&gt;&lt;/div&gt;" style="ellipse;whiteSpace=wrap;html=1;align=center;" vertex="1" parent="1">
          <mxGeometry x="448" y="760" width="140" height="70" as="geometry" />
        </mxCell>
        <mxCell id="PFju4BP5pIrMXIDn9N4t-25" value="&lt;div style=&quot;&quot;&gt;&lt;span style=&quot;font-family: &amp;quot;Nunito Sans&amp;quot;, sans-serif; font-size: 14px; text-align: left; background-color: rgb(255, 255, 255);&quot;&gt;Suivre les cours rejoint&lt;/span&gt;&lt;/div&gt;" style="ellipse;whiteSpace=wrap;html=1;align=center;" vertex="1" parent="1">
          <mxGeometry x="296" y="620" width="140" height="70" as="geometry" />
        </mxCell>
        <mxCell id="PFju4BP5pIrMXIDn9N4t-47" value="" style="group" vertex="1" connectable="0" parent="1">
          <mxGeometry x="164" y="940" width="345" height="170" as="geometry" />
        </mxCell>
        <mxCell id="PFju4BP5pIrMXIDn9N4t-31" value="&lt;div style=&quot;&quot;&gt;&lt;span style=&quot;font-family: &amp;quot;Nunito Sans&amp;quot;, sans-serif; font-size: 14px; text-align: left; background-color: rgb(255, 255, 255);&quot;&gt;Gerer des cours&lt;/span&gt;&lt;/div&gt;" style="ellipse;whiteSpace=wrap;html=1;align=center;" vertex="1" parent="PFju4BP5pIrMXIDn9N4t-47">
          <mxGeometry x="100" width="140" height="70" as="geometry" />
        </mxCell>
        <mxCell id="PFju4BP5pIrMXIDn9N4t-32" value="&lt;div style=&quot;&quot;&gt;&lt;span style=&quot;font-family: &amp;quot;Nunito Sans&amp;quot;, sans-serif; font-size: 14px; text-align: left; background-color: rgb(255, 255, 255);&quot;&gt;Ajouter&lt;/span&gt;&lt;/div&gt;" style="ellipse;whiteSpace=wrap;html=1;align=center;" vertex="1" parent="PFju4BP5pIrMXIDn9N4t-47">
          <mxGeometry y="120" width="100" height="50" as="geometry" />
        </mxCell>
        <mxCell id="PFju4BP5pIrMXIDn9N4t-33" value="&lt;div style=&quot;&quot;&gt;&lt;span style=&quot;font-family: &amp;quot;Nunito Sans&amp;quot;, sans-serif; font-size: 14px; text-align: left; background-color: rgb(255, 255, 255);&quot;&gt;Supprimer&lt;/span&gt;&lt;/div&gt;" style="ellipse;whiteSpace=wrap;html=1;align=center;" vertex="1" parent="PFju4BP5pIrMXIDn9N4t-47">
          <mxGeometry x="120" y="120" width="100" height="50" as="geometry" />
        </mxCell>
        <mxCell id="PFju4BP5pIrMXIDn9N4t-34" value="&lt;div style=&quot;&quot;&gt;&lt;span style=&quot;font-family: &amp;quot;Nunito Sans&amp;quot;, sans-serif; font-size: 14px; text-align: left; background-color: rgb(255, 255, 255);&quot;&gt;Modifier&lt;/span&gt;&lt;/div&gt;" style="ellipse;whiteSpace=wrap;html=1;align=center;" vertex="1" parent="PFju4BP5pIrMXIDn9N4t-47">
          <mxGeometry x="245" y="120" width="100" height="50" as="geometry" />
        </mxCell>
        <mxCell id="PFju4BP5pIrMXIDn9N4t-35" style="rounded=0;orthogonalLoop=1;jettySize=auto;html=1;exitX=0.5;exitY=0;exitDx=0;exitDy=0;entryX=0;entryY=1;entryDx=0;entryDy=0;endArrow=block;endFill=1;" edge="1" parent="PFju4BP5pIrMXIDn9N4t-47" source="PFju4BP5pIrMXIDn9N4t-32" target="PFju4BP5pIrMXIDn9N4t-31">
          <mxGeometry relative="1" as="geometry" />
        </mxCell>
        <mxCell id="PFju4BP5pIrMXIDn9N4t-36" style="rounded=0;orthogonalLoop=1;jettySize=auto;html=1;exitX=0.5;exitY=0;exitDx=0;exitDy=0;entryX=0.5;entryY=1;entryDx=0;entryDy=0;endArrow=block;endFill=1;" edge="1" parent="PFju4BP5pIrMXIDn9N4t-47" source="PFju4BP5pIrMXIDn9N4t-33" target="PFju4BP5pIrMXIDn9N4t-31">
          <mxGeometry relative="1" as="geometry" />
        </mxCell>
        <mxCell id="PFju4BP5pIrMXIDn9N4t-37" style="rounded=0;orthogonalLoop=1;jettySize=auto;html=1;exitX=0.5;exitY=0;exitDx=0;exitDy=0;entryX=1;entryY=1;entryDx=0;entryDy=0;endArrow=block;endFill=1;" edge="1" parent="PFju4BP5pIrMXIDn9N4t-47" source="PFju4BP5pIrMXIDn9N4t-34" target="PFju4BP5pIrMXIDn9N4t-31">
          <mxGeometry relative="1" as="geometry" />
        </mxCell>
        <mxCell id="PFju4BP5pIrMXIDn9N4t-50" value="" style="group" vertex="1" connectable="0" parent="1">
          <mxGeometry x="558" y="930" width="220" height="170" as="geometry" />
        </mxCell>
        <mxCell id="PFju4BP5pIrMXIDn9N4t-55" style="rounded=0;orthogonalLoop=1;jettySize=auto;html=1;exitX=0;exitY=0.5;exitDx=0;exitDy=0;dashed=1;" edge="1" parent="PFju4BP5pIrMXIDn9N4t-50" source="PFju4BP5pIrMXIDn9N4t-40">
          <mxGeometry relative="1" as="geometry">
            <mxPoint x="-40" y="-100" as="targetPoint" />
          </mxGeometry>
        </mxCell>
        <mxCell id="PFju4BP5pIrMXIDn9N4t-56" value="Include" style="edgeLabel;html=1;align=center;verticalAlign=middle;resizable=0;points=[];" vertex="1" connectable="0" parent="PFju4BP5pIrMXIDn9N4t-55">
          <mxGeometry x="-0.0068" y="-1" relative="1" as="geometry">
            <mxPoint as="offset" />
          </mxGeometry>
        </mxCell>
        <mxCell id="PFju4BP5pIrMXIDn9N4t-40" value="&lt;div style=&quot;&quot;&gt;&lt;span style=&quot;font-family: &amp;quot;Nunito Sans&amp;quot;, sans-serif; font-size: 14px; text-align: left; background-color: rgb(255, 255, 255);&quot;&gt;Afficher les statues des cours&lt;/span&gt;&lt;/div&gt;" style="ellipse;whiteSpace=wrap;html=1;align=center;" vertex="1" parent="PFju4BP5pIrMXIDn9N4t-50">
          <mxGeometry x="40" width="140" height="70" as="geometry" />
        </mxCell>
        <mxCell id="PFju4BP5pIrMXIDn9N4t-42" value="&lt;div style=&quot;&quot;&gt;&lt;span style=&quot;font-family: &amp;quot;Nunito Sans&amp;quot;, sans-serif; font-size: 14px; text-align: left; background-color: rgb(255, 255, 255);&quot;&gt;Nombre d&#39;étudiant&lt;/span&gt;&lt;/div&gt;" style="ellipse;whiteSpace=wrap;html=1;align=center;" vertex="1" parent="PFju4BP5pIrMXIDn9N4t-50">
          <mxGeometry y="120" width="100" height="50" as="geometry" />
        </mxCell>
        <mxCell id="PFju4BP5pIrMXIDn9N4t-44" value="&lt;div style=&quot;&quot;&gt;&lt;span style=&quot;font-family: &amp;quot;Nunito Sans&amp;quot;, sans-serif; font-size: 14px; text-align: left; background-color: rgb(255, 255, 255);&quot;&gt;Nombre des cours&lt;/span&gt;&lt;/div&gt;" style="ellipse;whiteSpace=wrap;html=1;align=center;" vertex="1" parent="PFju4BP5pIrMXIDn9N4t-50">
          <mxGeometry x="120" y="120" width="100" height="50" as="geometry" />
        </mxCell>
        <mxCell id="PFju4BP5pIrMXIDn9N4t-41" style="rounded=0;orthogonalLoop=1;jettySize=auto;html=1;exitX=0.5;exitY=0;exitDx=0;exitDy=0;entryX=0.5;entryY=1;entryDx=0;entryDy=0;endArrow=block;endFill=1;" edge="1" parent="PFju4BP5pIrMXIDn9N4t-50" source="PFju4BP5pIrMXIDn9N4t-42" target="PFju4BP5pIrMXIDn9N4t-40">
          <mxGeometry relative="1" as="geometry" />
        </mxCell>
        <mxCell id="PFju4BP5pIrMXIDn9N4t-43" style="rounded=0;orthogonalLoop=1;jettySize=auto;html=1;exitX=0.5;exitY=0;exitDx=0;exitDy=0;entryX=0.5;entryY=1;entryDx=0;entryDy=0;endArrow=block;endFill=1;" edge="1" parent="PFju4BP5pIrMXIDn9N4t-50" source="PFju4BP5pIrMXIDn9N4t-44" target="PFju4BP5pIrMXIDn9N4t-40">
          <mxGeometry relative="1" as="geometry" />
        </mxCell>
        <mxCell id="PFju4BP5pIrMXIDn9N4t-54" style="rounded=0;orthogonalLoop=1;jettySize=auto;html=1;exitX=1;exitY=0;exitDx=0;exitDy=0;entryX=0.5;entryY=1;entryDx=0;entryDy=0;dashed=1;" edge="1" parent="1" source="PFju4BP5pIrMXIDn9N4t-31" target="PFju4BP5pIrMXIDn9N4t-24">
          <mxGeometry relative="1" as="geometry" />
        </mxCell>
        <mxCell id="PFju4BP5pIrMXIDn9N4t-57" value="Include" style="edgeLabel;html=1;align=center;verticalAlign=middle;resizable=0;points=[];" vertex="1" connectable="0" parent="PFju4BP5pIrMXIDn9N4t-54">
          <mxGeometry x="0.0311" y="-1" relative="1" as="geometry">
            <mxPoint as="offset" />
          </mxGeometry>
        </mxCell>
      </root>
    </mxGraphModel>
  </diagram>
</mxfile>
